<svg width="1280" height="720" xmlns="http://www.w3.org/2000/svg" xmlns:xlink="http://www.w3.org/1999/xlink" overflow="hidden"><defs><clipPath id="clip0"><rect x="0" y="0" width="1280" height="720"/></clipPath><linearGradient x1="542.5" y1="65.5001" x2="33.5001" y2="65.5001" gradientUnits="userSpaceOnUse" spreadMethod="reflect" id="fill1"><stop offset="0" stop-color="#454545"/><stop offset="0.5"/><stop offset="1"/></linearGradient></defs><g clip-path="url(#clip0)"><rect x="0" y="0" width="1280" height="720"/><path d="M1189.34 0 1280 0 1280 720 558 720 1189.34 0.000419947C1189.34 0.000314961 1189.34 0.000314961 1189.34 0.000209974L1189.34 0Z" fill="#1C2431" fill-rule="evenodd"/><path d="M125.5 541.5 1156.74 541.5" stroke="#FFFFFF" stroke-width="1.33333" stroke-miterlimit="8" fill="none" fill-rule="evenodd"/><rect x="0" y="0" width="1280" height="720"/><path d="M1281 720 790 720 1280.48 162C1280.65 348 1280.83 534 1281 720Z" fill="#1C2431" fill-rule="evenodd" fill-opacity="0.6"/><path d="M206.86 5.24934e-05 234.651 5.24934e-05 234.651 0.00015748 503.347 5.24934e-05 503.347 0.00015748 955.578 0.00015748 955.578 5.24934e-05 957 5.24934e-05 325.806 720 558.495 720 558.495 720 554.05 720 238.912 720-6.10352e-05 720-6.10352e-05 0.00015748 206.86 0.00015748Z" fill="#000000" fill-rule="evenodd" fill-opacity="0.6"/><path d="M33.5001 42.8335C33.5001 36.5742 38.5742 31.5001 44.8334 31.5001L531.167 31.5001C537.426 31.5001 542.5 36.5742 542.5 42.8335L542.5 88.1666C542.5 94.4259 537.426 99.5001 531.167 99.5001L44.8334 99.5001C38.5742 99.5001 33.5001 94.4259 33.5001 88.1666Z" stroke="#FFFFFF" stroke-width="0.333333" stroke-miterlimit="8" fill="url(#fill1)" fill-rule="evenodd"/><text fill="#FF6600" font-family="Walbaum Display,Walbaum Display_MSFontService,sans-serif" font-weight="700" font-size="27" transform="translate(46.3181 64)">Análisis de calidad en el servicio</text><text fill="#FFFFFF" font-family="Walbaum Display,Walbaum Display_MSFontService,sans-serif" font-weight="700" font-size="16" transform="translate(46.3181 86)">Centro de atención al cliente</text><path d="M590.5 62.8334C590.5 58.7833 593.783 55.5001 597.833 55.5001L798.167 55.5001C802.217 55.5001 805.5 58.7833 805.5 62.8334L805.5 92.1667C805.5 96.2168 802.217 99.5001 798.167 99.5001L597.833 99.5001C593.783 99.5001 590.5 96.2168 590.5 92.1667Z" stroke="#FFFFFF" stroke-width="0.333333" stroke-linejoin="round" stroke-miterlimit="10" fill="#262626" fill-rule="evenodd"/><text fill="#FFFFFF" font-family="Walbaum Display,Walbaum Display_MSFontService,sans-serif" font-weight="700" font-size="19" transform="translate(630.137 82)">Ajuste fechas</text><path d="M32.5001 266.5C32.5001 257.664 39.6636 250.5 48.5003 250.5L212.5 250.5C221.337 250.5 228.5 257.664 228.5 266.5L228.5 330.5C228.5 339.336 221.337 346.5 212.5 346.5L48.5003 346.5C39.6636 346.5 32.5001 339.336 32.5001 330.5Z" stroke="#FFFFFF" stroke-width="0.333333" stroke-miterlimit="8" fill="#C34DAA" fill-rule="evenodd"/><text fill="#FFFFFF" font-family="Walbaum Display,Walbaum Display_MSFontService,sans-serif" font-weight="700" font-size="13" transform="translate(46.6344 331)">Satisfacción promedio</text><path d="M31.5001 135.667C31.5001 126.186 39.186 118.5 48.667 118.5L210.333 118.5C219.814 118.5 227.5 126.186 227.5 135.667L227.5 204.333C227.5 213.814 219.814 221.5 210.333 221.5L48.667 221.5C39.186 221.5 31.5001 213.814 31.5001 204.333Z" stroke="#FFFFFF" stroke-width="1.33333" stroke-miterlimit="8" fill="#414CDF" fill-rule="evenodd"/><text fill="#FFFFFF" font-family="Walbaum Display,Walbaum Display_MSFontService,sans-serif" font-weight="700" font-size="13" transform="translate(64.6856 208)">Llamadas totales</text><path d="M31.5001 394.5C31.5001 385.664 38.6636 378.5 47.5003 378.5L212.5 378.5C221.337 378.5 228.5 385.664 228.5 394.5L228.5 458.5C228.5 467.336 221.337 474.5 212.5 474.5L47.5003 474.5C38.6636 474.5 31.5001 467.336 31.5001 458.5Z" stroke="#FFFFFF" stroke-width="1.33333" stroke-miterlimit="8" fill="#3BA2B1" fill-rule="evenodd"/><text fill="#FFFFFF" font-family="Walbaum Display,Walbaum Display_MSFontService,sans-serif" font-weight="700" font-size="13" transform="translate(56.535 459)">Duración de espera</text><g><g><g><path d="M50.5 406.167C45.1833 406.167 40.8333 401.817 40.8333 396.5 40.8333 391.183 45.1833 386.833 50.5 386.833 55.8167 386.833 60.1667 391.183 60.1667 396.5 60.1667 401.817 55.8167 406.167 50.5 406.167ZM50.5 385.021C44.1562 385.021 39.0208 390.156 39.0208 396.5 39.0208 402.844 44.1562 407.979 50.5 407.979 56.8438 407.979 61.9792 402.844 61.9792 396.5 61.9792 390.156 56.8438 385.021 50.5 385.021Z" stroke="#FFFFFF" stroke-width="0.219697" fill="#FFFFFF"/><path d="M51.1042 390.458 49.8958 390.458 49.8958 396.5C49.8958 396.681 49.9563 396.832 50.0771 396.923L54.3365 401.182 55.1823 400.336 51.1042 396.258 51.1042 390.458Z" stroke="#FFFFFF" stroke-width="0.219697" fill="#FFFFFF"/><path d="M51.1042 388.646C51.1042 388.979 50.8337 389.25 50.5 389.25 50.1663 389.25 49.8958 388.979 49.8958 388.646 49.8958 388.312 50.1663 388.042 50.5 388.042 50.8337 388.042 51.1042 388.312 51.1042 388.646Z" stroke="#FFFFFF" stroke-width="0.219697" fill="#FFFFFF"/><path d="M51.1042 404.354C51.1042 404.688 50.8337 404.958 50.5 404.958 50.1663 404.958 49.8958 404.688 49.8958 404.354 49.8958 404.021 50.1663 403.75 50.5 403.75 50.8337 403.75 51.1042 404.021 51.1042 404.354Z" stroke="#FFFFFF" stroke-width="0.219697" fill="#FFFFFF"/><path d="M43.25 396.5C43.25 396.834 42.9795 397.104 42.6458 397.104 42.3122 397.104 42.0417 396.834 42.0417 396.5 42.0417 396.166 42.3122 395.896 42.6458 395.896 42.9795 395.896 43.25 396.166 43.25 396.5Z" stroke="#FFFFFF" stroke-width="0.219697" fill="#FFFFFF"/><path d="M58.9583 396.5C58.9583 396.834 58.6878 397.104 58.3542 397.104 58.0205 397.104 57.75 396.834 57.75 396.5 57.75 396.166 58.0205 395.896 58.3542 395.896 58.6878 395.896 58.9583 396.166 58.9583 396.5Z" stroke="#FFFFFF" stroke-width="0.219697" fill="#FFFFFF"/></g></g></g><g><g><g><path d="M40.9688 257.969 40.9688 281.031 64.0312 281.031 64.0312 257.969ZM61.4688 278.469 43.5312 278.469 43.5312 260.531 61.4688 260.531Z" stroke="#FFFFFF" stroke-width="0.262821" fill="#FFFFFF"/><path d="M60.0355 265.057 58.2417 263.227 50.1984 271.109 46.7775 267.688 44.9654 269.5 50.1801 274.715 60.0355 265.057Z" stroke="#FFFFFF" stroke-width="0.262821" fill="#FFFFFF"/></g></g></g><g><g><g><path d="M48.875 133.03C49.0769 132.821 49.1898 132.541 49.19 132.25 49.1912 131.954 49.0737 131.671 48.8638 131.462L45.3088 127.904C45.0989 127.694 44.8145 127.575 44.5175 127.574 44.2219 127.576 43.9389 127.695 43.73 127.904L43.3363 128.301 48.4662 133.42Z" stroke="#FFFFFF" stroke-width="0.375" fill="#FFFFFF"/><path d="M54.0312 142.135C53.8163 142.354 53.4649 142.356 53.2464 142.141 53.2442 142.139 53.2421 142.137 53.24 142.135L46.865 135.76C46.6457 135.54 46.6457 135.185 46.865 134.965L47.66 134.193 42.5488 129.085C42.2188 129.415 41.8962 129.738 41.6862 129.936 41.1719 130.417 40.8641 131.078 40.8275 131.781 40.7811 132.928 40.9859 134.071 41.4275 135.13 41.8507 136.079 42.3696 136.983 42.9762 137.826 45.0861 140.992 47.7546 143.747 50.8512 145.956 51.3683 146.339 51.9122 146.683 52.4788 146.988 53.7592 147.66 55.1621 148.069 56.6038 148.188 57.5898 148.259 58.5552 147.88 59.2288 147.156L59.9338 146.451 54.8037 141.34Z" stroke="#FFFFFF" stroke-width="0.375" fill="#FFFFFF"/><path d="M61.1112 143.691 57.5563 140.125C57.1179 139.691 56.4121 139.691 55.9738 140.125L55.5988 140.53 60.7137 145.667 61.1112 145.292C61.545 144.854 61.545 144.148 61.1112 143.71Z" stroke="#FFFFFF" stroke-width="0.375" fill="#FFFFFF"/><path d="M58.3025 136.75 56.8025 136.75C56.6399 134.599 55.1007 132.801 53 132.31L53 130.78C55.9349 131.305 58.1273 133.774 58.3025 136.75Z" stroke="#FFFFFF" stroke-width="0.375" fill="#FFFFFF"/><path d="M61.8875 136C61.8875 136.251 61.8875 136.503 61.8538 136.75L60.3538 136.75C60.3795 136.501 60.392 136.251 60.3913 136 60.3851 131.921 57.0789 128.617 53 128.613L53 127.113C57.9067 127.117 61.8834 131.093 61.8875 136Z" stroke="#FFFFFF" stroke-width="0.375" fill="#FFFFFF"/><path d="M65.75 136C65.75 136.251 65.75 136.503 65.7238 136.75L64.2238 136.75C64.2238 136.503 64.2538 136.251 64.2538 136 64.2538 129.994 59.3849 125.125 53.3787 125.125 53.3775 125.125 53.3762 125.125 53.375 125.125 53.2475 125.125 53.1237 125.125 53 125.125L53 123.625 53.375 123.625C60.2095 123.625 65.75 129.165 65.75 136Z" stroke="#FFFFFF" stroke-width="0.375" fill="#FFFFFF"/></g></g></g><path d="M245.5 143.213C245.5 129.564 256.564 118.5 270.213 118.5L780.787 118.5C794.436 118.5 805.5 129.564 805.5 143.213L805.5 379.787C805.5 393.436 794.436 404.5 780.787 404.5L270.213 404.5C256.564 404.5 245.5 393.436 245.5 379.787Z" stroke="#FFFFFF" stroke-width="0.333333" stroke-linejoin="round" stroke-miterlimit="10" fill="#262626" fill-rule="evenodd"/><text fill="#FFFFFF" font-family="Walbaum Display,Walbaum Display_MSFontService,sans-serif" font-weight="700" font-size="16" transform="translate(429.869 137)">Duración de atención</text><path d="M247.5 447.263C247.5 434.139 258.139 423.5 271.263 423.5L782.737 423.5C795.861 423.5 806.5 434.139 806.5 447.263L806.5 674.737C806.5 687.861 795.861 698.5 782.737 698.5L271.263 698.5C258.139 698.5 247.5 687.861 247.5 674.737Z" stroke="#FFFFFF" stroke-width="0.333333" stroke-linejoin="round" stroke-miterlimit="10" fill="#262626" fill-rule="evenodd"/><text fill="#FFFFFF" font-family="Walbaum Display,Walbaum Display_MSFontService,sans-serif" font-weight="700" font-size="16" transform="translate(391.039 443)">Número de llamadas por fecha</text><path d="M824.5 143.213C824.5 129.565 835.565 118.5 849.213 118.5L1243.79 118.5C1257.44 118.5 1268.5 129.565 1268.5 143.213L1268.5 379.787C1268.5 393.436 1257.44 404.5 1243.79 404.5L849.213 404.5C835.565 404.5 824.5 393.436 824.5 379.787Z" stroke="#FFFFFF" stroke-width="0.333333" stroke-linejoin="round" stroke-miterlimit="10" fill="#262626" fill-rule="evenodd"/><text fill="#FFFFFF" font-family="Walbaum Display,Walbaum Display_MSFontService,sans-serif" font-weight="700" font-size="16" transform="translate(953.314 143)">Estado de atenciones</text><path d="M824.5 447.263C824.5 434.139 835.139 423.5 848.263 423.5L1244.74 423.5C1257.86 423.5 1268.5 434.139 1268.5 447.263L1268.5 674.737C1268.5 687.861 1257.86 698.5 1244.74 698.5L848.263 698.5C835.139 698.5 824.5 687.861 824.5 674.737Z" stroke="#FFFFFF" stroke-width="0.333333" stroke-linejoin="round" stroke-miterlimit="10" fill="#262626" fill-rule="evenodd"/><text fill="#FFFFFF" font-family="Walbaum Display,Walbaum Display_MSFontService,sans-serif" font-weight="700" font-size="16" transform="translate(920.581 441)">Total</text><text fill="#FFFFFF" font-family="Walbaum Display,Walbaum Display_MSFontService,sans-serif" font-weight="700" font-size="16" transform="translate(970.361 441)">de atenciones por área</text><text fill="#FFFFFF" font-family="Aptos ExtraBold,Aptos ExtraBold_MSFontService,sans-serif" font-weight="800" font-size="24" transform="translate(59.7501 592)">Data</text><text fill="#FFFFFF" font-family="Aptos ExtraBold,Aptos ExtraBold_MSFontService,sans-serif" font-weight="800" font-size="24" transform="translate(117.337 592)">Invest</text><text fill="#FFFFFF" font-family="Aptos ExtraBold,Aptos ExtraBold_MSFontService,sans-serif" font-weight="800" font-size="24" transform="translate(45.8435 621)">Carlos de Oro</text><text fill="#FFFFFF" font-family="Walbaum Display,Walbaum Display_MSFontService,sans-serif" font-weight="700" font-size="16" transform="matrix(-1.83697e-16 -1 1 -1.83697e-16 275.23 655)">Número de llamadas</text><text fill="#FFFFFF" font-family="Walbaum Display,Walbaum Display_MSFontService,sans-serif" font-weight="700" font-size="19" transform="translate(506.557 686)">Dia</text></g></svg>